<?xml version="1.0" encoding="utf-8" ?>
<svg baseProfile="full" height="200mm" version="1.1" viewBox="0,0,200,200" width="200mm" xmlns="http://www.w3.org/2000/svg" xmlns:ev="http://www.w3.org/2001/xml-events" xmlns:xlink="http://www.w3.org/1999/xlink"><defs /><rect fill="#1a1a1a" height="200" width="200" x="0" y="0" /><text alignment-baseline="middle" fill="#e1ed5e" style="dominant-baseline: central; font-size:9.0px; font-family:Arial;" text-anchor="middle" x="100.0" y="100.0">2024</text><line stroke="#e1ed5e" stroke-width="0.3" x1="100.0" x2="100.0" y1="15.0" y2="10.0" /><path d="M 100.0 14.0 a86.0,86.0 0 0,1 42.35913384403234,11.155469271406648" fill="none" id="id13" stroke="none" /><text fill="#e1ed5e" style="font-size:6.75px; font-family:Arial;" text-anchor="middle"><textPath startOffset="22.145653131862478" xlink:href="#id13">January</textPath></text><path d="M 101.44090949804482 79.04949213459386 l 1.0827029755280126 -15.742263643537152 a36.779452156391514,36.779452156391514 0 0,0 0.629508355247048,0.048727927985209585 l -1.3527803255502941 15.721357948556888" fill="#ffb911" stroke="none" /><path d="M 101.80034050326958 79.07731436759882 l 3.3864639898211495 -39.35584481702091 a60.50127415180157,60.50127415180157 0 0,0 1.0339968432783149,0.09792057610092102 l -4.061560396484477 39.2919124854148" fill="#32ff2f" stroke="none" /><path d="M 103.58742460773223 79.30868818359171 l 2.2845843494233558 -13.17687542280842 a34.37345772632653,34.37345772632653 0 0,0 0.5805272163466282,0.10579139719740387 l -2.5104462993210377 13.13571585167965" fill="#ff990e" stroke="none" /><path d="M 105.3480935250658 79.69241777938227 l 4.071135218443544 -15.45876353738177 a36.98585349837585,36.98585349837585 0 0,0 0.6125889404304657,0.1669638397763422 l -4.335905559808703 15.386599203461286" fill="#ffbc11" stroke="none" /><path d="M 106.04205211174951 79.88797359093562 l 7.55691788394704 -25.154521881319198 a47.26512857349998,47.26512857349998 0 0,0 0.7750566553719753,0.24011453304659713 l -7.987615172190646 25.021090760465956" fill="#c2ff1e" stroke="none" /><path d="M 106.72888874123014 80.10723608172694 l 7.3732536280181975 -21.79771420992498 a44.0109802885633,44.0109802885633 0 0,0 0.713594512137918,0.24822521378906223 l -7.746353912201133 21.667930563567324" fill="#e9ff1a" stroke="none" /><path d="M 107.40779381753099 80.34994680014964 l 8.109717304765303 -21.511988643266346 a43.98984928509167,43.98984928509167 0 0,0 0.7043146427798648,0.272444034229041 l -8.477804210038693 21.369604720899268" fill="#e9ff1a" stroke="none" /><path d="M 107.74402155503746 80.48000691201159 l 6.1533664584651975 -15.510503151810926 a37.686510324046225,37.686510324046225 0 0,0 0.5992972379055083,0.24372896938388056 l -6.418718157561146 15.402586925847752" fill="#ffc512" stroke="none" /><path d="M 108.07796709384702 80.6158196554323 l 10.848835673758712 -26.033256237067423 a49.20332721118254,49.20332721118254 0 0,0 0.7768617851495464,0.331596101023129 l -11.294132534078688 25.843185486384893" fill="#abff21" stroke="none" /><path d="M 108.73861861582097 80.90454125486305 l 6.9984376889593705 -15.292849367288744 a37.818126288526635,37.818126288526635 0 0,0 0.5880021454017466,0.27521469401686244 l -7.259928548232622 15.170458441701347" fill="#ffc712" stroke="none" /><path d="M 109.06512990194946 81.05736502329252 l 9.937804667854694 -20.76618960005288 a44.021611414533496,44.021611414533496 0 0,0 0.6788546508364128,0.33206182756445785 l -10.292819567953174 20.592534022391202" fill="#e8ff1a" stroke="none" /><path d="M 109.3889696526874 81.21577127319529 l 19.247503583950582 -38.507900559401136 a64.05025899697837,64.05025899697837 0 0,0 0.9792759336249852,0.5000252693261967 l -19.905706739289148 38.17181733840211" fill="#34ff58" stroke="none" /><path d="M 110.02825361518725 81.54914285379988 l 10.50725591763449 -19.332167431549323 a43.00307079750736,43.00307079750736 0 0,0 0.6455699045737562,0.35808674370391086 l -10.837570010364345 19.148947772412264" fill="#f5ff19" stroke="none" /><path d="M 110.34350942703115 81.72400993836675 l 16.3766098390496 -28.935900409153707 a54.24875459786303,54.24875459786303 0 0,0 0.8065176092688445,0.46564315881754087 l -16.870919916178842 28.650510353059992" fill="#73ff27" stroke="none" /><line stroke="#e1ed5e" stroke-width="0.3" x1="143.13028292997686" x2="145.6673583964461" y1="26.7553504044142" y2="22.446841604673864" /><path d="M 143.63769802327073 25.89364864446614 a86.0,86.0 0 0,1 29.32050498858742,28.57503671076993" fill="none" id="id14" stroke="none" /><text fill="#e1ed5e" style="font-size:6.75px; font-family:Arial;" text-anchor="middle"><textPath startOffset="20.669276256404974" xlink:href="#id14">February</textPath></text><path d="M 111.27062007382361 82.28071324371311 l 25.865503627989437 -40.664867849159734 a69.19393898737849,69.19393898737849 0 0,0 0.9967695573530483,0.6460939844481024 l -26.559758817599494 40.21486002300774" fill="#3aff94" stroke="none" /><path d="M 111.5731344415666 82.4767994020092 l 12.513710681358061 -18.947352906147906 a43.70672008826564,43.70672008826564 0 0,0 0.6225162958812203,0.41885674588846344 l -12.837123265336283 18.729746486202323" fill="#ecff1a" stroke="none" /><path d="M 112.16784306229584 82.88440491214696 l 11.612580162084358 -16.33454828122752 a41.0416936802404,41.0416936802404 0 0,0 0.570712091478329,0.4131515421688274 l -11.891273263936654 16.132795967685617" fill="#fff116" stroke="none" /><path d="M 112.45986205192187 83.09580414077388 l 19.854153602428784 -26.935972462299326 a54.462427105017106,54.462427105017106 0 0,0 0.7478132415427118,0.5611729978355373 l -20.313619832882264 26.59118043719977" fill="#70ff27" stroke="none" /><path d="M 113.31354834802062 83.75963576809568 l 33.68333368052264 -41.08819025679111 a74.13008889896284,74.13008889896284 0 0,0 0.9771957722901654,0.8152114684164473 l -34.38370378697469 40.50391660446279" fill="#40ffca" stroke="none" /><path d="M 113.86319453409587 84.22622945171908 l 5.225462267982966 -5.945616836086514 a28.915542652002394,28.915542652002394 0 0,0 0.370029408522543,0.3308825788154171 l -5.3267567033288845 5.85503872738771" fill="#ff4d07" stroke="none" /><path d="M 114.13192950727249 84.46653392183569 l 10.195538244194397 -11.206682525788148 a36.15053574374966,36.15053574374966 0 0,0 0.4554455004212634,0.42155355578340753 l -10.386413515929625 11.030011223872366" fill="#ffb110" stroke="none" /><path d="M 114.39649973595853 84.71141617570332 l 9.003249949456343 -9.561139448330879 a34.132931782462535,34.132931782462535 0 0,0 0.4231305371932073,0.40534948303110896 l -9.166052972514864 9.40517783499419" fill="#ff960d" stroke="none" /><path d="M 114.65682725009322 84.96080404539774 l 13.771742313507783 -14.13102083793843 a40.73186854486698,40.73186854486698 0 0,0 0.4965565455090558,0.4923124979726536 l -14.0122907791468 13.892528329737116" fill="#ffed16" stroke="none" /><path d="M 115.16444852881244 85.47280134310134 l 28.60523748791862 -27.403170436775625 a60.61304534780428,60.61304534780428 0 0,0 0.7133409789137788,0.7575433995382306 l -29.07143430056866 26.908085577292898" fill="#31ff2f" stroke="none" /><path d="M 115.41159269507618 85.73525988315684 l 19.308053795962493 -17.87124634103695 a47.30935930747475,47.30935930747475 0 0,0 0.5465409209376713,0.6007442119878307 l -19.61199241774204 17.537164553491447" fill="#c1ff1e" stroke="none" /><path d="M 115.6541949942343 86.00192230759917 l 9.483552905443945 -8.480251486537156 a33.72212407521912,33.72212407521912 0 0,0 0.3821663061770385,0.43483510312825624 l -9.627730275579575 8.316204105597603" fill="#ff900d" stroke="none" /><path d="M 115.8921839302757 86.27271002978787 l 16.58312167442062 -14.324105537339586 a42.913008098238855,42.913008098238855 0 0,0 0.47675419455154505,0.5616152424003531 l -16.82657043247928 14.037323512489682" fill="#f6ff19" stroke="none" /><path d="M 116.1254893667686 86.54754324733833 l 27.55453178002429 -22.986970421778814 a56.88388260470295,56.88388260470295 0 0,0 0.6190948715886363,0.7551950799200877 l -27.945073470851554 22.51057306016023" fill="#57ff2a" stroke="none" /><path d="M 116.57777611688842 87.10902102172516 l 5.543854488487311 -4.31093478195183 a28.02271181836212,28.02271181836212 0 0,0 0.29203405098184043,0.3822819471542059 l -5.617040516823458 4.2151319215567415" fill="#ff4106" stroke="none" /><path d="M 116.7966241395341 87.39550010848427 l 46.27476850974224 -34.725448984008764 a78.85508627399346,78.85508627399346 0 0,0 0.803187795216685,1.089678500893878 l -46.86405832454275 33.925964173846005" fill="#46fffa" stroke="none" /><path d="M 117.42321728460499 88.27688183743584 l 2.1900075255222324 -1.4735348001018704 a23.639590454778027,23.639590454778027 0 0,0 0.2236480427279673,0.3386316417438644 l -2.214980007170924 1.4357232800189474" fill="#ff0000" stroke="none" /><path d="M 117.62189284568427 88.57770195909679 l 15.451796744436805 -10.015667966431892 a39.41389767119384,39.41389767119384 0 0,0 0.36313770968778786,0.5709127951995858 l -15.621452145750483 9.748941496553634" fill="#ffdc14" stroke="none" /><line stroke="#e1ed5e" stroke-width="0.3" x1="172.87174338648825" x2="177.1583165268699" y1="56.24261187166439" y2="53.66864786411523" /><path d="M 173.72905801456457 55.72781907015455 a86.0,86.0 0 0,1 12.242430191666344,42.057860355516425" fill="none" id="id15" stroke="none" /><text fill="#e1ed5e" style="font-size:6.75px; font-family:Arial;" text-anchor="middle"><textPath startOffset="22.145653131862474" xlink:href="#id15">March</textPath></text><path d="M 118.00360718960297 89.18935116829356 l 6.783252465426218 -4.073148206814822 a28.912208940895688,28.912208940895688 0 0,0 0.25184776731004793,0.42769256807342076 l -6.852173942866034 3.956104470447845" fill="#ff4d07" stroke="none" /><path d="M 118.36410011445183 89.81374322990088 l 22.966449539350744 -12.739102414348523 a47.262949848918424,47.262949848918424 0 0,0 0.38745412416134334,0.7128719485893875 l -23.18174901312743 12.342975632284531" fill="#c2ff1e" stroke="none" /><path d="M 118.53625476483649 90.13048839642627 l 19.52771657139525 -10.397409171257921 a43.12324189551122,43.12324189551122 0 0,0 0.34229983160111127,0.6564050610196982 l -19.703324471971303 10.060657867133724" fill="#f3ff19" stroke="none" /><path d="M 118.8641267826498 90.77261029715802 l 15.07384130847331 -7.373371143795003 a37.78056297676527,37.78056297676527 0 0,0 0.2799732973874518,0.5850365116660039 l -15.198193863820675 7.113522130063895" fill="#ffc712" stroke="none" /><path d="M 119.0197475246899 91.09779779509293 l 21.049479600738042 -9.852219303678265 a44.241058854313366,44.241058854313366 0 0,0 0.3160402914004279,0.6906050729015486 l -21.215504356993524 9.489425248562032" fill="#e6ff1a" stroke="none" /><path d="M 119.31412917781788 91.75594674310238 l 31.317253667257514 -13.367473351537994 a55.050840240197196,55.050840240197196 0 0,0 0.3635299418031587,0.8723395218990259 l -31.542109453597156 12.82790132019769" fill="#6aff28" stroke="none" /><path d="M 119.71291397450082 92.76114493625339 l 14.150454514249802 -5.196242901850693 a36.074359132476786,36.074359132476786 0 0,0 0.20847514714719553,0.5831420903065098 l -14.237569831440942 4.952565855163266" fill="#ffb010" stroke="none" /><path d="M 119.83427380445688 93.10060997987247 l 35.08480950256009 -12.20431798645662 a58.146860369962354,58.146860369962354 0 0,0 0.31984809821555993,0.9455740690917559 l -35.28914302234802 11.600242242890701" fill="#4aff2c" stroke="none" /><path d="M 120.05942366710727 93.78553927170692 l 13.137540590948754 -4.070043657469687 a34.75355329187826,34.75355329187826 0 0,0 0.1716555447801745,0.5713854806329233 l -13.205472455732556 3.8439205732460398" fill="#ff9e0e" stroke="none" /><path d="M 120.16314734710363 94.1308016681162 l 50.42056260117699 -14.676690936049708 a73.51322109575389,73.51322109575389 0 0,0 0.34229683862845056,1.2146907242186882 l -50.66507793188003 13.808992287928007" fill="#40ffc3" stroke="none" /><path d="M 120.26092885502905 94.47779374421319 l 12.769605346085847 -3.4804127209883964 a34.23541058687648,34.23541058687648 0 0,0 0.14967480099258876,0.5683395986374777 l -12.827469627883165 3.26069261797812" fill="#ff970e" stroke="none" /><path d="M 120.43855184770803 95.1765574152323 l 16.144888000412955 -3.810149607846591 a37.588388968795364,37.588388968795364 0 0,0 0.1428164367264523,0.6292755716177857 l -16.207915298697074 3.532439702289779" fill="#ffc412" stroke="none" /><path d="M 120.51834098615036 95.52812308129327 l 21.948264585650684 -4.783522111874917 a43.46349042594503,43.46349042594503 0 0,0 0.15262367997963824,0.7303595590966825 l -22.027145976454687 4.40604610149283" fill="#efff19" stroke="none" /><path d="M 120.77682067341334 96.94652285012252 l 26.714108820858502 -3.9260540458056057 a48.00106498757515,48.00106498757515 0 0,0 0.11281503658697296,0.8162734059957427 l -26.777568374000687 3.466892331609777" fill="#b9ff1f" stroke="none" /><path d="M 120.86939407059847 97.66154086499901 l 26.878735548890287 -3.0118183819304196 a48.04694945225639,48.04694945225639 0 0,0 0.08480883165473664,0.8204485138895109 l -26.92647677302669 2.549965345757977" fill="#b8ff1f" stroke="none" /><path d="M 120.9064616781168 98.02013634271609 l 18.382602092183156 -1.7408515304490808 a39.46484832676953,39.46484832676953 0 0,0 0.05808169012207485,0.6749972803565446 l -18.40977740500297 1.4250332027168742" fill="#ffdc14" stroke="none" /><path d="M 120.93736805541906 98.37931529534042 l 15.986200640810182 -1.2374330333976464 a37.03402168641366,37.03402168641366 0 0,0 0.043622618983281576,0.6342633061680795 l -16.00508722095853 0.9628263030752329" fill="#ffbd11" stroke="none" /><line stroke="#e1ed5e" stroke-width="0.3" x1="184.99686870605535" x2="189.99668451229388" y1="99.2704041080226" y2="99.22748670261217" /><path d="M 185.99683186730306 99.26182062694052 a86.0,86.0 0 0,1 -10.086455211305974,41.156179273409016" fill="none" id="id16" stroke="none" /><text fill="#e1ed5e" style="font-size:6.75px; font-family:Arial;" text-anchor="middle"><textPath startOffset="21.40746469413373" xlink:href="#id16">April</textPath></text><path d="M 120.99922638620191 99.81974689727618 l 13.15352570922009 -0.11290719844815175 a34.15401028654666,34.15401028654666 0 0,0 0.0,0.5863206023439557 l -13.15352570922009 -0.11290719844815016" fill="#ff960d" stroke="none" /><path d="M 120.99922638620191 100.18025310272382 l 26.283427564367333 0.2256116145215304 a47.2843958487151,47.2843958487151 0 0,0 -0.013934415144067392,0.8116098242956482 l -26.275681717624597 -0.6767683547862496" fill="#c1ff1e" stroke="none" /><path d="M 120.98066250479742 100.90099992219065 l 32.51463841181485 1.3963184752818634 a53.544606562923434,53.544606562923434 0 0,0 -0.04731918052290602,0.9179794607237077 l -32.485877641835366 -1.954269729382302" fill="#7aff26" stroke="none" /><path d="M 120.96210409425399 101.26102812881392 l 41.092712359343885 2.4720355333316046 a62.16700096832204,62.16700096832204 0 0,0 -0.07322692143827564,1.0647033666123962 l -41.044221476740546 -3.1770823240983446" fill="#31ff41" stroke="none" /><path d="M 120.93736805541906 101.62068470465957 l 17.8676367558922 1.3830680877385968 a38.92108592066426,38.92108592066426 0 0,0 -0.057281417451318956,0.6656968988564875 l -17.84126171574314 -1.6895860339707416" fill="#ffd513" stroke="none" /><path d="M 120.7213421655516 103.40968896794604 l 28.516248890273204 4.692337903189082 a49.899731586464824,49.899731586464824 0 0,0 -0.1463373369924265,0.8440348721383288 l -28.431496735788542 -5.181165808247999" fill="#a3ff21" stroke="none" /><path d="M 120.65975698304385 103.76489593502545 l 25.860988111833056 4.71273350881579 a47.28688956962169,47.28688956962169 0 0,0 -0.15238472112478052,0.797341252578855 l -25.776277098426114 -5.155977326427959" fill="#c1ff1e" stroke="none" /><path d="M 120.51834098615036 104.47187691870673 l 41.046231438757594 8.945835099181311 a63.00977363597425,63.00977363597425 0 0,0 -0.23940455008861894,1.0548606207944313 l -40.886616027111316 -9.64913005391476" fill="#32ff4b" stroke="none" /><path d="M 120.35273937422433 105.17358676015961 l 34.401401518855295 8.744701740458828 a56.495439636537576,56.495439636537576 0 0,0 -0.24699407834264453,0.9378767462536415 l -34.24621795970792 -9.333958991085273" fill="#5bff2a" stroke="none" /><path d="M 120.05942366710727 106.21446072829308 l 25.094347131522998 7.774292887921868 a47.27100850490078,47.27100850490078 0 0,0 -0.24678906918717144,0.7730632442486144 l -24.957193346558572 -8.203925165861865" fill="#c2ff1e" stroke="none" /><path d="M 119.94978838288452 106.5578916946017 l 52.36855609076782 17.2145845587297 a76.12538062055944,76.12538062055944 0 0,0 -0.41874244047748477,1.237937619616107 l -52.06532822871797 -18.11102385281997" fill="#43ffdf" stroke="none" /><path d="M 119.83427380445688 106.89939002012753 l 21.21811147158257 7.380760595333468 a43.465170406345266,43.465170406345266 0 0,0 -0.25118693759643296,0.7026145699000322 l -21.088284363942194 -7.743910121614422" fill="#efff19" stroke="none" /><path d="M 119.58574465831526 107.57618678355244 l 27.257358695905825 10.543731898332299 a50.225569035027924,50.225569035027924 0 0,0 -0.3179549380046192,0.8014541473098937 l -27.072345082935083 -11.010087062855757" fill="#9fff22" stroke="none" /><path d="M 119.4528033332814 107.91128576633889 l 7.316357136188878 2.9754987536400086 a28.898270353512544,28.898270353512544 0 0,0 -0.1908306302680795,0.4579240431917089 l -7.264200661384312 -3.100655306272995" fill="#ff4d07" stroke="none" /><path d="M 119.31412917781788 108.2440532568976 l 36.71037160851618 15.669474706045325 a60.914706828420336,60.914706828420336 0 0,0 -0.4187628453758894,0.9582113416148378 l -36.43597488112333 -16.29734811743601" fill="#30ff31" stroke="none" /><path d="M 119.0197475246899 108.90220220490707 l 54.68382269488989 25.59479016928397 a81.37726184861177,81.37726184861177 0 0,0 -0.603047136860548,1.2601365794925223 l -54.23639630006943 -26.529739250841597" fill="#4aebff" stroke="none" /><path d="M 118.5362547648365 109.86951160357373 l 26.721228736861317 14.227549223184546 a51.27287931640798,51.27287931640798 0 0,0 -0.42032688633005405,0.7733541284434388 l -26.473056500915924 -14.684158185102588" fill="#94ff23" stroke="none" /><line stroke="#e1ed5e" stroke-width="0.3" x1="174.33088141563837" x2="178.70328620479359" y1="141.23008692659167" y2="143.65538615756765" /><path d="M 175.20536237346943 141.71514677278685 a86.0,86.0 0 0,1 -30.301960400862466,31.631185727798858" fill="none" id="id17" stroke="none" /><text fill="#e1ed5e" style="font-size:6.75px; font-family:Arial;" text-anchor="middle"><textPath startOffset="22.145653131862474" xlink:href="#id17">May</textPath></text><path d="M 118.36410011445183 110.18625677009912 l 18.368821163444018 10.188875456392424 a42.005398687015315,42.005398687015315 0 0,0 -0.355178918847082,0.6275671170161073 l -18.19120887957556 -10.502699343507652" fill="#fffd17" stroke="none" /><path d="M 118.18653347947321 110.5 l 11.385569186350548 6.573461434616594 a34.146922869233194,34.146922869233194 0 0,0 -0.29744618623589975,0.5051286521760747 l -11.271049289984884 -6.767941255086218" fill="#ff960d" stroke="none" /><path d="M 117.81537515405839 111.11811171558189 l 53.44612546217515 33.35433514674567 a84.0,84.0 0 0,0 -0.7739292334964403,1.2167453012853122 l -52.865678537052815 -34.26689412270965" fill="#4dd2ff" stroke="none" /><path d="M 117.62189284568427 111.42229804090321 l 13.219591537969883 8.568779520338229 a36.75377995590051,36.75377995590051 0 0,0 -0.3477179930725087,0.5264893598968272 l -13.070549105976648 -8.794448758574116" fill="#ffb911" stroke="none" /><path d="M 117.21940702142032 112.02048342749411 l 15.53792284408233 10.846676881069977 a39.94933892437922,39.94933892437922 0 0,0 -0.3973720821434362,0.5589535978039554 l -15.349435663408931 -11.111807705583436" fill="#ffe315" stroke="none" /><path d="M 115.16444852881244 114.52719865689866 l 9.494483143844088 9.095500077904925 a34.14813035514586,34.14813035514586 0 0,0 -0.4091485863513083,0.4198224936195971 l -9.336947756341972 -9.257145263592259" fill="#ff960d" stroke="none" /><path d="M 114.91283532996324 114.78537596483092 l 13.06345405999545 12.95180127740374 a39.39573288311637,39.39573288311637 0 0,0 -0.4802679014514012,0.47616307225842713 l -12.839194238414084 -13.17414435989083" fill="#ffdc14" stroke="none" /><path d="M 114.65682725009322 115.03919595460226 l 5.517589851586303 5.6615332608633615 a28.905489019294777,28.905489019294777 0 0,0 -0.3583282905352632,0.34327039661892234 l -5.419589075185727 -5.755415787787864" fill="#ff4d07" stroke="none" /><path d="M 114.13192950727249 115.5334660781643 l 10.648072677272648 11.704097140105661 a36.82300039832869,36.82300039832869 0 0,0 -0.47122038211083833,0.42136817137258126 l -10.445587268338432 -11.885160841361628" fill="#ffba11" stroke="none" /><path d="M 113.86319453409587 115.77377054828091 l 17.345114719512008 19.735556552011964 a47.27442096508874,47.27442096508874 0 0,0 -0.614163434362156,0.5304997468931488 l -17.003771805386997 -20.03040043136983" fill="#c1ff1e" stroke="none" /><path d="M 113.31354834802062 116.24036423190432 l 8.696774292752503 10.60865056143814 a34.71777495929214,34.71777495929214 0 0,0 -0.4641423130857606,0.37388019251145554 l -8.51338120931149 -10.756379047742998" fill="#ff9e0e" stroke="none" /><path d="M 113.03279911837588 116.46651593811092 l 16.321435559149833 20.621600649752295 a47.29904317782959,47.29904317782959 0 0,0 -0.640992253175197,0.49843945307601834 l -15.965033361339406 -20.89874115444911" fill="#c1ff1e" stroke="none" /><path d="M 112.16784306229584 117.11559508785304 l 8.037846463842769 11.30623765848496 a34.87220190764441,34.87220190764441 0 0,0 -0.4908759078799768,0.34266950704442556 l -7.842575464789033 -11.442551981334509" fill="#ffa00e" stroke="none" /><path d="M 111.5731344415666 117.5232005979908 l 21.71054186301842 32.872527496989 a60.39480539393707,60.39480539393707 0 0,0 -0.8700141127956103,0.5639326367018105 l -21.1430421179658 -33.240373975394704" fill="#33ff2f" stroke="none" /><line stroke="#e1ed5e" stroke-width="0.3" x1="143.1302829299769" x2="145.66735839644613" y1="173.24464959558577" y2="177.55315839532614" /><path d="M 143.63769802327073 174.10635135553383 a86.0,86.0 0 0,1 -40.68552437913181,11.842963189579606" fill="none" id="id18" stroke="none" /><text fill="#e1ed5e" style="font-size:6.75px; font-family:Arial;" text-anchor="middle"><textPath startOffset="21.407464694133747" xlink:href="#id18">June</textPath></text><path d="M 110.65571695917076 118.09573695890943 l 17.332080646317046 29.433662092200098 a55.15759774469298,55.15759774469298 0 0,0 -0.8200294033628306,0.47344419677494026 l -16.824258775093817 -29.72685318625121" fill="#69ff28" stroke="none" /><path d="M 110.34350942703117 118.27599006163325 l 11.197507009773261 19.784921961870644 a43.73383602191308,43.73383602191308 0 0,0 -0.6565402847684023,0.3641718286703286 l -10.856222536848765 -19.974226705974115" fill="#ecff1a" stroke="none" /><path d="M 109.06512990194946 118.94263497670748 l 7.977175921013605 16.669229591982464 a39.47967940374029,39.47967940374029 0 0,0 -0.6138362332407548,0.2873063515650848 l -7.689850973901343 -16.803712175118083" fill="#ffdd14" stroke="none" /><path d="M 108.73861861582097 119.09545874513695 l 5.466630333058126 11.945573847431126 a34.137000484994346,34.137000484994346 0 0,0 -0.5349537774439335,0.23927802031332332 l -5.2607631527585665 -12.037655618654298" fill="#ff960d" stroke="none" /><path d="M 108.4095320186766 119.2426549942271 l 10.517752572050638 24.066676196622073 a47.26457732993115,47.26457732993115 0 0,0 -0.7462512394999984,0.31853027930089056 l -10.10306625738021 -24.243681125582366" fill="#c2ff1e" stroke="none" /><path d="M 107.407793817531 119.65005319985036 l 12.065729361605564 32.005780626541295 a55.20455844681812,55.20455844681812 0 0,0 -0.8896105455498594,0.32667731471592754 l -11.514529664401577 -32.20818879026594" fill="#68ff28" stroke="none" /><path d="M 106.72888874123015 119.89276391827305 l 8.200106652143807 24.24215825359832 a46.591482682702036,46.591482682702036 0 0,0 -0.7598344494335616,0.24977267575868442 l -7.782749465062511 -24.379351850759022" fill="#caff1d" stroke="none" /><path d="M 106.0420521117495 120.11202640906438 l 3.8291738252128775 12.746074292841577 a34.30883098030523,34.30883098030523 0 0,0 -0.5655075395583047,0.1646110029702317 l -3.609806273272966 -12.809928990114326" fill="#ff980e" stroke="none" /><path d="M 105.69591212413111 120.21278271476187 l 13.033782293185332 46.25229527814283 a69.05366062395939,69.05366062395939 0 0,0 -1.1437213094550744,0.31172632879473644 l -12.237879582795562 -46.469222101081705" fill="#3aff92" stroke="none" /><path d="M 104.9986988182912 120.39639698878246 l 3.1395961121592126 12.810623527409888 a34.18973611974527,34.18973611974527 0 0,0 -0.5712418607874706,0.13481152373489785 l -2.9192220976318626 -12.86263119479101" fill="#ff970d" stroke="none" /><path d="M 104.64783097203109 120.47920084513623 l 2.9070855905987294 12.809155505467194 a34.13490050949406,34.13490050949406 0 0,0 -0.572552136400496,0.12478507327925902 l -2.6867710375790974 -12.857172036880172" fill="#ff960d" stroke="none" /><path d="M 104.29559338865022 120.5559693870025 l 3.7646033864567374 18.014990005962137 a39.40413278511751,39.40413278511751 0 0,0 -0.6633094963878007,0.13268047634344665 l -3.454797404537978 -18.076959878968445" fill="#ffdc14" stroke="none" /><path d="M 103.58742460773223 120.69131181640829 l 2.693214150580938 15.5337435267414 a36.76548731931461,36.76548731931461 0 0,0 -0.6227767119379619,0.10247767095505529 l -2.426159935589904 -15.577687196192127" fill="#ffb911" stroke="none" /><path d="M 102.875027216393 120.80226474461374 l 0.7199271661066977 5.209034342631396 a26.258548650265748,26.258548650265748 0 0,0 -0.44704826225857386,0.05787934776738485 l -0.6304010819573485 -5.220625286599176" fill="#ff2703" stroke="none" /><path d="M 102.51750503828377 120.84855314841334 l 3.4654846267776023 28.699184044388936 a49.9076589939784,49.9076589939784 0 0,0 -0.8514344025091635,0.0954050007233666 l -2.972314322667639 -28.754444805619272" fill="#a3ff22" stroke="none" /><path d="M 101.44090949804482 120.95050786540614 l 0.9108026767778798 13.242871026639897 a34.27415513485676,34.27415513485676 0 0,0 -0.5873213476745847,0.035331793828539744 l -0.6833369769708302 -13.256554798293127" fill="#ff980e" stroke="none" /><path d="M 100.72087961077811 120.9876233191556 l 0.9198649922766249 26.780865589389194 a47.79665862231607,47.79665862231607 0 0,0 -0.8202513999708808,0.021126766431225793 l -0.4600002782350002 -26.792710073170465" fill="#bbff1f" stroke="none" /><line stroke="#e1ed5e" stroke-width="0.3" x1="101.45913802915013" x2="101.54496967792366" y1="184.9874750549273" y2="189.98673829345242" /><path d="M 101.47630435890484 185.9873277026323 a86.0,86.0 0 0,1 -42.54439059252881,-10.42667462771756" fill="none" id="id19" stroke="none" /><text fill="#e1ed5e" style="font-size:6.75px; font-family:Arial;" text-anchor="middle"><textPath startOffset="22.145653131862474" xlink:href="#id19">July</textPath></text><path d="M 100.0 121.0 l 2.303506659641378e-15 18.80955930514144 a39.80955930514144,39.80955930514144 0 0,0 -0.6833840224216322,-0.005866029925479961 l 0.3228910975727778 -18.806787673410398" fill="#ffe115" stroke="none" /><path d="M 99.27912038922189 120.98762331915562 l -0.45132033801347243 13.139699207578742 a34.14744786310826,34.14744786310826 0 0,0 -0.5856681457865491,-0.02515111015501013 l 0.6768142444008604 -13.130015528997903" fill="#ff960d" stroke="none" /><path d="M 98.91894614982273 120.97215588758144 l -2.1636864709959065 41.97493950383354 a63.030668392202095,63.030668392202095 0 0,0 -1.080092476657182,-0.06497568128947105 l 2.883923299785535 -41.93161184471938" fill="#32ff4b" stroke="none" /><path d="M 98.55909050195518 120.95050786540614 l -0.5411830834311416 7.8686832597283605 a28.887271731829795,28.887271731829795 0 0,0 -0.4944276722272614,-0.03827182880953184 l 0.6761797504336391 -7.858233663923775" fill="#ff4d07" stroke="none" /><path d="M 98.19965949673042 120.92268563240118 l -0.523265112941283 6.081133785853612 a27.10360504127452,27.10360504127452 0 0,0 -0.4632140801501679,-0.043866854992084474 l 0.6275787564764661 -6.0712551753563435" fill="#ff3304" stroke="none" /><path d="M 97.84075906011543 120.88869738790638 l -2.702020996183862 26.139602062228093 a47.27888341302685,47.27888341302685 0 0,0 -0.8065869780613805,-0.0903797532712168 l 3.150343875846042 -26.089366548449906" fill="#c1ff1e" stroke="none" /><path d="M 96.76829788921471 120.74984581791261 l -5.65612771980954 36.31639739343138 a57.75421745079641,57.75421745079641 0 0,0 -0.978308306705411,-0.16098025957840065 l 6.278713529568014 -36.21395113535731" fill="#4eff2c" stroke="none" /><path d="M 96.05791012581884 120.62667999033965 l -2.146462604877295 11.231199357480726 a32.43447159783136,32.43447159783136 0 0,0 -0.5459856999895099,-0.10921243121923518 l 2.338944790397763 -11.192697529598629" fill="#ff7f0b" stroke="none" /><path d="M 95.70440661134978 120.55596938700252 l -1.9422835856203866 9.294530071766358 a30.49530172147992,30.49530172147992 0 0,0 -0.5115043515640179,-0.11147999271096712 l 2.1015503538035407 -9.259818620921672" fill="#ff6409" stroke="none" /><path d="M 95.00130118170881 120.39639698878247 l -8.441722822684461 34.44510986152948 a56.46446499790836,56.46446499790836 0 0,0 -0.9394469138633361,-0.23880373182548273 l 9.031775029773177 -34.295120897868735" fill="#5bff2a" stroke="none" /><path d="M 94.30408787586889 120.21278271476187 l -8.96457758718896 31.812123317670707 a54.051094403898624,54.051094403898624 0 0,0 -0.8909164356060034,-0.2593327900496562 l 9.509354035176571 -31.653546833318536" fill="#75ff27" stroke="none" /><path d="M 93.61358852112213 120.00534299687104 l -6.387414665977166 20.008485466171322 a42.003298711515036,42.003298711515036 0 0,0 -0.6850083215468443,-0.22517584128657228 l 6.729945725171754 -19.89588870348273" fill="#fffd17" stroke="none" /><path d="M 93.27111125876986 119.89276391827306 l -12.712564552223519 37.582438223961155 a60.674285883331365,60.674285883331365 0 0,0 -0.983773529931645,-0.3422075010858672 l 13.355843854200186 -37.3586722903067" fill="#30ff2f" stroke="none" /><path d="M 92.59220618246901 119.65005319985036 l -9.270421716740488 24.590894996010288 a47.28027464679579,47.28027464679579 0 0,0 -0.7569971320560356,-0.2928227528298297 l 9.691191111290053 -24.42813235504242" fill="#c1ff1e" stroke="none" /><path d="M 92.25597844496254 119.51999308798841 l -5.808906718367152 14.642239589007408 a36.75241497182533,36.75241497182533 0 0,0 -0.5844430962056533,-0.23768791926952032 l 6.059404275763246 -14.540364413158596" fill="#ffb911" stroke="none" /><path d="M 91.92203290615298 119.3841803445677 l -13.150544764206753 31.556520146369603 a55.186997401696985,55.186997401696985 0 0,0 -0.8713367926220605,-0.37192186388193965 l 13.690316631999245 -31.32612363282826" fill="#69ff28" stroke="none" /><path d="M 91.26138138417905 119.09545874513695 l -6.5558755123865025 14.32577114172058 a36.75459369640687,36.75459369640687 0 0,0 -0.571466174235459,-0.267475024560908 l 6.800830400493451 -14.211119885589145" fill="#ffb911" stroke="none" /><path d="M 90.28995756902619 118.62028667847754 l -15.337852632564344 29.41235479461725 a54.17131800128999,54.17131800128999 0 0,0 -0.8208532976949156,-0.43705814627668177 l 15.840494746045822 -29.144726180617994" fill="#74ff27" stroke="none" /><path d="M 89.97174638481275 118.45085714620012 l -10.031220272270742 18.45631546109219 a42.006212427521675,42.006212427521675 0 0,0 -0.6306048857774075,-0.34978590004269366 l 10.346569346204252 -18.281396645616347" fill="#fffd17" stroke="none" /><line stroke="#e1ed5e" stroke-width="0.3" x1="58.13341422392154" x2="55.67067388415222" y1="173.97424548756322" y2="178.32567169271397" /><path d="M 57.64086615596768 174.84453072859336 a86.0,86.0 0 0,1 -31.369924170532247,-30.572349798747897" fill="none" id="id20" stroke="none" /><text fill="#e1ed5e" style="font-size:6.75px; font-family:Arial;" text-anchor="middle"><textPath startOffset="22.145653131862474" xlink:href="#id20">August</textPath></text><path d="M 88.72937992617639 117.7192867562869 l -8.454331602108613 13.291613505669263 a36.7525462202941,36.7525462202941 0 0,0 -0.5294368229893952,-0.34317455218750076 l 8.68125405735502 -13.144525111777867" fill="#ffb911" stroke="none" /><path d="M 87.83215693770417 117.11559508785305 l -12.169571889827942 17.11802690028397 a42.00298371518999,42.00298371518999 0 0,0 -0.5840794697994786,-0.42282849321051713 l 12.461632370001375 -16.906597635700386" fill="#fffd17" stroke="none" /><path d="M 84.3458050057657 113.99807769240083 l -11.780759652358713 10.534427924908083 a36.80381187219483,36.80381187219483 0 0,0 -0.41709047760627466,-0.47457239927300315 l 11.95986119392358 -10.33064324782378" fill="#ffba11" stroke="none" /><path d="M 83.20337586046588 112.60449989151573 l -17.055702045717464 12.798916782270345 a42.323912471021174,42.323912471021174 0 0,0 -0.4310952095648649,-0.5848634460069774 l 17.272899274866163 -12.504247026994486" fill="#fdff18" stroke="none" /><path d="M 82.576782715395 111.72311816256416 l -10.908374845345147 7.339641421249881 a34.14773660973955,34.14773660973955 0 0,0 -0.3230628919298689,-0.4891583943517882 l 11.032762176195742 -7.151303148559031" fill="#ff960d" stroke="none" /><path d="M 82.18462484594161 111.11811171558189 l -11.146527075918538 6.95625728895131 a34.139047961107124,34.139047961107124 0 0,0 -0.3060029756797029,-0.4998328637563837 l 11.264298016053646 -6.763887309070369" fill="#ff960d" stroke="none" /><line stroke="#e1ed5e" stroke-width="0.3" x1="26.387840678322732" x2="22.057713659400548" y1="142.50000000000003" y2="145.00000000000006" /><path d="M 25.521815274538298 143.00000000000003 a86.0,86.0 0 0,1 -11.493303480769221,-40.785679425670985" fill="none" id="id21" stroke="none" /><text fill="#e1ed5e" style="font-size:6.75px; font-family:Arial;" text-anchor="middle"><textPath startOffset="21.40746469413373" xlink:href="#id21">September</textPath></text><path d="M 81.81346652052679 110.50000000000001 l -11.382091052400824 6.571453333044455 a34.1429066660889,34.1429066660889 0 0,0 -0.28869719262316934,-0.5101002769344268 l 11.493221610045373 -6.375096286010907" fill="#ff960d" stroke="none" /><path d="M 81.4637452351635 109.86951160357371 l -23.42067854953492 12.470192152661852 a47.53363669090527,47.53363669090527 0 0,0 -0.3773082708881049,-0.7235383593882626 l 23.631294889397974 -12.066307550169087" fill="#beff1e" stroke="none" /><path d="M 80.83023694016515 108.57439118712176 l -11.99684889029556 5.366037914871757 a34.142250423745054,34.142250423745054 0 0,0 -0.2347135310895525,-0.5370704922940273 l 12.08719630340208 -5.159305352801881" fill="#ff960d" stroke="none" /><path d="M 80.68587082218212 108.24405325689762 l -12.085747760613414 5.158687056021077 a34.14067544211984,34.14067544211984 0 0,0 -0.22544901589951988,-0.5409955663263759 l 12.172522621049419 -4.95045898025342" fill="#ff960d" stroke="none" /><path d="M 80.41425534168474 107.57618678355246 l -16.979418416503336 6.568003802954981 a39.20547510279047,39.20547510279047 0 0,0 -0.2374158790262867,-0.6297738258204735 l 17.089664979344057 -6.275561696940363" fill="#ffd914" stroke="none" /><path d="M 80.28708602549918 107.23885506374661 l -24.654481384294765 9.053467064463657 a47.264209834218605,47.264209834218605 0 0,0 -0.27314173659467406,-0.7640260501425856 l 24.80626329093338 -8.628906057940151" fill="#c2ff1e" stroke="none" /><path d="M 80.05021161711548 106.5578916946017 l -39.91684144371082 13.121458631762923 a63.01817353797539,63.01817353797539 0 0,0 -0.3290007317635338,-1.030590106340498 l 40.13620689125161 -12.434299491731034" fill="#32ff4b" stroke="none" /><path d="M 79.83685265289637 105.86919833188381 l -50.53798636059581 14.710871281064339 a73.63551841895178,73.63551841895178 0 0,0 -0.34286628704169086,-1.2167114957462513 l 50.78307113971208 -13.841151861415092" fill="#40ffc5" stroke="none" /><path d="M 79.56144815229197 104.8234425847677 l -17.91824381051803 4.22865675043386 a39.410458961312116,39.410458961312116 0 0,0 -0.14973936029238283,-0.6597792502143983 l 17.98819403236808 -3.9204431662804353" fill="#ffdc14" stroke="none" /><path d="M 79.48165901384964 104.47187691870673 l -21.761934575420323 4.742912353387425 a43.272786400825325,43.272786400825325 0 0,0 -0.15195401562881278,-0.7271549727567491 l 21.840146301873503 -4.368640929345267" fill="#f2ff19" stroke="none" /><path d="M 79.407916724674 104.11899336999214 l -12.883286596197424 2.577018136723987 a34.138496717538295,34.138496717538295 0 0,0 -0.11001326898996344,-0.5756359105380439 l 12.925626157469543 -2.3554796611526285" fill="#ff960d" stroke="none" /><line stroke="#e1ed5e" stroke-width="0.3" x1="15.003131293944662" x2="10.003315487706104" y1="100.72959589197737" y2="100.7725132973878" /><path d="M 14.003168132696942 100.73817937305945 a86.0,86.0 0 0,1 10.791469493833604,-42.45332614584628" fill="none" id="id22" stroke="none" /><text fill="#e1ed5e" style="font-size:6.75px; font-family:Arial;" text-anchor="middle"><textPath startOffset="22.145653131862435" xlink:href="#id22">October</textPath></text><line stroke="#e1ed5e" stroke-width="0.3" x1="26.387840678322718" x2="22.05771365940052" y1="57.49999999999999" y2="54.99999999999999" /><path d="M 25.521815274538284 56.99999999999999 a86.0,86.0 0 0,1 29.574782752854787,-30.34633250058573" fill="none" id="id23" stroke="none" /><text fill="#e1ed5e" style="font-size:6.75px; font-family:Arial;" text-anchor="middle"><textPath startOffset="21.40746469413373" xlink:href="#id23">November</textPath></text><line stroke="#e1ed5e" stroke-width="0.3" x1="56.869717070023135" x2="54.33264160355391" y1="26.7553504044142" y2="22.446841604673864" /><path d="M 56.362301976729285 25.89364864446614 a86.0,86.0 0 0,1 42.16139366436587,-11.88097634709845" fill="none" id="id24" stroke="none" /><text fill="#e1ed5e" style="font-size:6.75px; font-family:Arial;" text-anchor="middle"><textPath startOffset="22.145653131862474" xlink:href="#id24">December</textPath></text></svg>