<?xml version="1.0" encoding="utf-8" ?>
<svg baseProfile="full" height="200mm" version="1.1" viewBox="0,0,200,200" width="200mm" xmlns="http://www.w3.org/2000/svg" xmlns:ev="http://www.w3.org/2001/xml-events" xmlns:xlink="http://www.w3.org/1999/xlink"><defs /><rect fill="#1a1a1a" height="200" width="200" x="0" y="0" /><text alignment-baseline="middle" fill="#e1ed5e" style="dominant-baseline: central; font-size:9.0px; font-family:Arial;" text-anchor="middle" x="100.0" y="100.0">2023</text><line stroke="#e1ed5e" stroke-width="0.3" x1="100.0" x2="100.0" y1="15.0" y2="10.0" /><path d="M 100.0 14.0 a86.0,86.0 0 0,1 42.46469731375804,11.215312516191453" fill="none" id="id1" stroke="none" /><text fill="#e1ed5e" style="font-size:6.75px; font-family:Arial;" text-anchor="middle"><textPath startOffset="22.20632615414155" xlink:href="#id1">January</textPath></text><line stroke="#e1ed5e" stroke-width="0.3" x1="143.23703022742887" x2="145.7803849466894" y1="26.81831364943548" y2="22.513508569990506" /><path d="M 143.74570117128098 25.957352633546492 a86.0,86.0 0 0,1 28.547481713284135,27.462654790039103" fill="none" id="id2" stroke="none" /><text fill="#e1ed5e" style="font-size:6.75px; font-family:Arial;" text-anchor="middle"><textPath startOffset="19.985693538727396" xlink:href="#id2">February</textPath></text><line stroke="#e1ed5e" stroke-width="0.3" x1="172.23445277983987" x2="176.4835382374775" y1="55.19839476539836" y2="52.563006222186495" /><path d="M 173.08426987136738 54.67131705675599 a86.0,86.0 0 0,1 12.851231095245387,41.99856678651699" fill="none" id="id3" stroke="none" /><text fill="#e1ed5e" style="font-size:6.75px; font-family:Arial;" text-anchor="middle"><textPath startOffset="22.20632615414155" xlink:href="#id3">March</textPath></text><line stroke="#e1ed5e" stroke-width="0.3" x1="184.98032266829074" x2="189.97916517819016" y1="98.17113171792111" y2="98.06355123074" /><path d="M 185.9800911702706 98.14961562048488 a86.0,86.0 0 0,1 -9.607161424134198,41.387399972396054" fill="none" id="id4" stroke="none" /><text fill="#e1ed5e" style="font-size:6.75px; font-family:Arial;" text-anchor="middle"><textPath startOffset="21.466115282336823" xlink:href="#id4">April</textPath></text><line stroke="#e1ed5e" stroke-width="0.3" x1="174.80103733775053" x2="179.2010983576182" y1="140.37084112569926" y2="142.7455964860345" /><path d="M 175.68104954172406 140.8457921977663 a86.0,86.0 0 0,1 -30.038265399797805,32.042727171017184" fill="none" id="id5" stroke="none" /><text fill="#e1ed5e" style="font-size:6.75px; font-family:Arial;" text-anchor="middle"><textPath startOffset="22.206326154141568" xlink:href="#id5">May</textPath></text><line stroke="#e1ed5e" stroke-width="0.3" x1="143.8653032363475" x2="146.44561519142675" y1="172.8068346515853" y2="177.08958963109032" /><path d="M 144.38136562736335 173.6633856474863 a86.0,86.0 0 0,1 -40.68145358897372,12.25698825130547" fill="none" id="id6" stroke="none" /><text fill="#e1ed5e" style="font-size:6.75px; font-family:Arial;" text-anchor="middle"><textPath startOffset="21.466115282336833" xlink:href="#id6">June</textPath></text><line stroke="#e1ed5e" stroke-width="0.3" x1="102.19456741930631" x2="102.32365962044197" y1="184.97166512339345" y2="189.96999836594603" /><path d="M 102.22038585953345 185.97133177190398 a86.0,86.0 0 0,1 -42.740103519485714,-10.115201625700543" fill="none" id="id7" stroke="none" /><text fill="#e1ed5e" style="font-size:6.75px; font-family:Arial;" text-anchor="middle"><textPath startOffset="22.20632615414155" xlink:href="#id7">July</textPath></text><line stroke="#e1ed5e" stroke-width="0.3" x1="58.666819895761336" x2="56.23545636021788" y1="174.27360380694188" y2="178.64263932499728" /><path d="M 58.180547188652646 175.14741091055294 a86.0,86.0 0 0,1 -31.652253787137756,-30.449443065178592" fill="none" id="id8" stroke="none" /><text fill="#e1ed5e" style="font-size:6.75px; font-family:Arial;" text-anchor="middle"><textPath startOffset="22.20632615414155" xlink:href="#id8">August</textPath></text><line stroke="#e1ed5e" stroke-width="0.3" x1="26.63291911575756" x2="22.317208475507996" y1="142.92168965132927" y2="145.44649492493687" /><path d="M 25.769776987707644 143.4266507060508 a86.0,86.0 0 0,1 -11.730757126820373,-40.83630448921669" fill="none" id="id9" stroke="none" /><text fill="#e1ed5e" style="font-size:6.75px; font-family:Arial;" text-anchor="middle"><textPath startOffset="21.46611528233685" xlink:href="#id9">September</textPath></text><line stroke="#e1ed5e" stroke-width="0.3" x1="15.007084014347285" x2="10.007500721073583" y1="101.09737516637583" y2="101.16192664675087" /><path d="M 14.007167355692545 101.11028546245083 a86.0,86.0 0 0,1 10.666146001902534,-42.60595125391555" fill="none" id="id10" stroke="none" /><text fill="#e1ed5e" style="font-size:6.75px; font-family:Arial;" text-anchor="middle"><textPath startOffset="22.20632615414155" xlink:href="#id10">October</textPath></text><line stroke="#e1ed5e" stroke-width="0.3" x1="26.266209847984243" x2="21.928928074336255" y1="57.711370442889674" y2="55.22380399835377" /><path d="M 25.398753493254645 57.213857153982495 a86.0,86.0 0 0,1 29.58750427330803,-30.492523968695096" fill="none" id="id11" stroke="none" /><text fill="#e1ed5e" style="font-size:6.75px; font-family:Arial;" text-anchor="middle"><textPath startOffset="21.46611528233685" xlink:href="#id11">November</textPath></text><line stroke="#e1ed5e" stroke-width="0.3" x1="56.762969772571076" x2="54.21961505331055" y1="26.818313649435495" y2="22.513508569990535" /><path d="M 56.25429882871897 25.957352633546506 a86.0,86.0 0 0,1 42.265352541879196,-11.944610805530505" fill="none" id="id12" stroke="none" /><text fill="#e1ed5e" style="font-size:6.75px; font-family:Arial;" text-anchor="middle"><textPath startOffset="22.20632615414155" xlink:href="#id12">December</textPath></text><path d="M 92.23578459929587 80.48803036053334 l -23.29264620211241 -58.53590891839998 a84.0,84.0 0 0,0 1.3480673400012946,-0.5230291844377941 l 22.28159569711144 58.92818080672833" fill="#4dd2ff" stroke="none" /><path d="M 92.91201910852362 80.23233633223022 l -10.938301776998467 -30.505820195465567 a53.40758416733285,53.40758416733285 0 0,0 0.8680461712293077,-0.30284426460854247 l 10.411573601705873 30.689585313246322" fill="#b4ff20" stroke="none" /><path d="M 93.25333710446033 80.11325718540243 l -6.433612234499654 -18.963981728052353 a41.025582872061605,41.025582872061605 0 0,0 0.6707041584522068,-0.2211206159706103 l 6.106225253805038 19.0719160682822" fill="#ff950d" stroke="none" /><path d="M 93.59665428221793 80.00007090966166 l -8.035653443544224 -25.098207429144317 a47.35321123546615,47.35321123546615 0 0,0 0.778429579409599,-0.24186185952358996 l 7.602438491423896 25.23280942355043" fill="#fff517" stroke="none" /><path d="M 94.28887869178378 79.79150937346287 l -13.070776180319356 -46.25022717369809 a69.06171765110653,69.06171765110653 0 0,0 1.1467603199417213,-0.3134529145621247 l 12.272717971153913 46.46836662908652" fill="#37ff76" stroke="none" /><path d="M 95.33964822691252 79.52364482259891 l -2.4588182380785897 -10.803398114776526 a32.07967499316947,32.07967499316947 0 0,0 0.5394843157441974,-0.117910375949724 l 2.2724911981808713 10.844121988822117" fill="#ff0000" stroke="none" /><path d="M 95.692805502759 79.44645832069477 l -8.190410636923842 -39.08389707139329 a60.93286662247903,60.93286662247903 0 0,0 1.0284121284983487,-0.20628979817777304 l 7.516432098958356 39.21909082564827" fill="#54ff2b" stroke="none" /><path d="M 96.04723909329186 79.375362276772 l -6.081830804802583 -31.733656551335468 a53.31119966909867,53.31119966909867 0 0,0 0.9027487001042528,-0.16497155471957947 l 5.534686983595437 31.83364358740578" fill="#b5ff1f" stroke="none" /><path d="M 96.40284397218896 79.31037775812273 l -3.4350362996271118 -19.757164514675964 a41.05355390048674,41.05355390048674 0 0,0 0.6972668409765073,-0.115055003173957 l 3.094440252511719 19.813365780789546" fill="#ff950d" stroke="none" /><path d="M 97.47563105711357 79.15227682838746 l -3.836092887169941 -31.680710855548234 a52.91211445441758,52.91211445441758 0 0,0 0.9051330142729299,-0.10170224046700617 l 3.290193169387293 31.74204904948584" fill="#bbff1f" stroke="none" /><path d="M 97.83486435360386 79.11191278185805 l -2.49397653644767 -24.060570754552636 a45.189480854271864,45.189480854271864 0 0,0 0.7744075561566326,-0.0735393286588769 l 2.079443853200801 24.099935627726694" fill="#ffd513" stroke="none" /><path d="M 99.27714615592234 79.0124445844662 l -1.3722933589366333 -39.84357716711164 a60.867202441788685,60.867202441788685 0 0,0 1.0474183691744596,-0.02705172629058517 l 0.6862483545672946 39.86129568554458" fill="#54ff2b" stroke="none" /></svg>